<?xml version="1.0" standalone="yes"?>
<svg xmlns="http://www.w3.org/2000/svg" width="1522" height="232">
<path style="fill:#ffffff; stroke:none;" d="M0 0L0 84L1 84C1.10373 46.4091 30.2998 4.24269 70 1L48 0L0 0z"/>
<path style="fill:#013daf; stroke:none;" d="M74 189C73.9984 174.603 55.7641 171.586 48.2076 159C37.0536 140.422 34.9325 115.222 35.0008 94C35.0702 72.4075 37.4714 47.8183 48.9267 29C56.4662 16.6144 73.9984 14.5539 74 0C10.4522 5.05725 -13.077 81.3592 6.05401 134C16.4261 162.54 42.2289 187.632 74 189z"/>
<path style="fill:#ffffff; stroke:none;" d="M74 0C73.9891 14.0979 55.4204 16.6532 48.3372 29C37.1856 48.4384 34.9731 72.9921 35 95C35.026 116.271 37.0187 141.363 48.2076 160C55.4613 172.082 73.9893 175.155 74 189C32.4776 185.696 1.02666 145.261 1 105L0 105L0 232L825 232L825 231C796.129 227.109 777.65 201.276 753 189C754.691 186.032 757.298 180.434 761.09 179.846C765.689 179.132 773.129 185.793 777 187.999C786.092 193.181 796.443 196.871 807 196.996C836.211 197.344 862.592 178.384 879 155C873.702 155.984 868.359 156.405 863 155.561C816.899 148.301 832.438 81.6529 851.159 56C865.593 36.2207 885.275 40.0985 895.752 61C898.618 66.7185 900.934 72.7445 902.335 79C904.852 90.2411 905 101.551 905 113C913.44 113 921.785 113.396 930 111.076C952.022 104.857 958.397 84.3103 960 64C981.493 68.0519 963.044 92.8793 975.529 106.699C981.16 112.932 988.231 113 996 113C1010.4 113 1031.44 115.593 1041.61 102.985C1047.74 95.3786 1044.92 87.2374 1048.15 79C1050.73 72.4141 1057.71 68.2622 1063 64C1064.07 77.527 1064.28 90.6736 1061 104C1069.61 108.586 1080.21 111.797 1090 112C1088.25 103.53 1082.69 95.5915 1082.1 87C1081.38 76.5283 1094.09 61.0655 1102 55L1108.83 82L1109 159L1074 155.37L1055 149.144L1035 157.486L995 159L975 155.995L959 135C950.955 145.853 941.608 155.039 928 157.985C922.1 159.263 909.342 156.376 904.738 160.028C900.115 163.695 897.747 178.364 894.691 184C884.192 203.367 864.137 227.583 841 231L841 232L1182 232L1182 231C1152.32 228.576 1134.49 199.774 1109 189L1116 178C1127.45 183.416 1137.48 191.916 1150 195.104C1183.19 203.559 1217.03 182.174 1235 155C1229.74 155.977 1224.31 156.492 1219 155.535C1178.15 148.184 1187.65 95.9228 1199.86 69C1205.34 56.928 1216.43 39.6701 1232 42.3295C1255.84 46.4027 1261 83.8515 1261 103C1261 122.68 1263.79 144.781 1259.1 164C1254.6 182.42 1243.18 197.817 1230 211C1220.79 220.209 1210.32 229.032 1197 231L1197 232L1328 232L1328 231C1302.28 227.534 1284.36 206.624 1262 196C1263.41 193.019 1266.04 186.5 1269.67 185.73C1273.74 184.867 1282.31 192.374 1286 194.244C1296.34 199.485 1307.35 202.395 1319 200.561C1343.84 196.65 1371.33 169.429 1385.51 150C1396 135.623 1392.44 122.221 1383.3 108C1380.56 103.741 1375.05 99.0224 1374.04 94C1371.46 81.1719 1380.95 63.1698 1382 50C1402.26 64.9139 1407 94.6771 1407 118C1407 133.258 1409.52 151.063 1406.33 166C1400.8 191.95 1371.63 223.934 1346 231L1346 232L1522 232L1522 159L1462 159C1452.73 159 1441.36 160.792 1433 155.914C1419.68 148.145 1422.89 130.803 1423.91 118C1424.23 114.09 1423.59 104.29 1428.22 102.662C1432.82 101.047 1440.22 111.7 1446 112.674C1464.65 115.82 1486.07 113 1505 113C1503.78 97.6683 1497.86 81.1091 1488.33 69C1484.21 63.7603 1473.51 58.3109 1471.78 51.9606C1470.68 47.9367 1473.35 41.9772 1474.21 38C1476.81 25.9671 1481.46 13.3065 1482 1C1511.04 17.7833 1521 56.8007 1521 88L1522 88L1522 0L284 0L284 1C314.167 3.464 339.122 29.6321 348.333 57C365.862 109.086 343.062 183.982 280 189C280.009 177.697 285.947 178.978 294 173.211C299.504 169.27 303.818 163.864 307.124 158C318.348 138.093 319.036 112.25 319 90C318.968 70.1777 316.609 46.1958 305.934 29C298.547 17.1 280.011 13.7693 280 0L74 0z"/>
<path style="fill:#013daf; stroke:none;" d="M280 0C280.002 14.3224 298.235 17.5972 305.934 30C316.802 47.5074 318.992 71.8443 319 92C319.008 113.554 317.836 138.961 306.546 158C298.991 170.741 280.002 174.728 280 189C312.616 187.596 338.82 161.562 348.667 132C366.199 79.3622 343.249 5.03351 280 0M1482 1C1480.99 13.363 1476.6 25.8661 1474 38C1473.09 42.2552 1470.15 48.6219 1471.64 52.9105C1473.97 59.6047 1484.69 65.1774 1489.1 71C1498.14 82.9353 1503.1 98.2675 1505 113C1486.39 113 1465.34 115.767 1447 112.674C1440.73 111.616 1432.93 99.9374 1427.43 102.608C1423.58 104.479 1424.2 113.403 1423.91 117C1422.93 129.294 1419.15 148.354 1432 155.914C1440.33 160.813 1451.76 159 1461 159L1522 159C1522 120.074 1526.59 77.2188 1512.95 40C1507.71 25.7277 1496.86 6.75769 1482 1M879 155C861.137 173.012 842.329 194.995 815 196.91C803.201 197.737 791.474 195.175 781 189.68C776.019 187.066 766.786 178.521 761.09 179.103C756.944 179.526 754.28 185.673 753 189C783.143 210.652 822.418 249.291 861 222.971C868.338 217.966 874.886 211.694 880.711 205C888.034 196.582 894.104 187.176 898.688 177C900.728 172.472 901.273 164.075 904.738 160.603C908.794 156.541 920.596 159.412 926 158.561C939.88 156.376 952.566 147.603 959 135C962.714 142.838 966.228 151.269 974 155.995C980.001 159.643 987.279 159 994 159C1007.74 159 1022.51 160.525 1036 157.486C1042.38 156.049 1048.4 150.186 1054.58 149.477C1060.05 148.849 1068.51 154.258 1074 155.625C1085.55 158.498 1097.17 159 1109 159C1109 123.566 1111.34 89.222 1102 55C1097.66 57.2039 1095.38 61.1162 1092.58 65C1089.21 69.6579 1084.38 74.4152 1082.65 80C1079.35 90.6995 1087.17 102.019 1090 112L1061 104C1064.96 91.4777 1064.63 76.8797 1063 64C1057.39 67.2251 1050.6 71.7433 1048.15 78C1045.1 85.7744 1047.65 93.6093 1042.36 100.999C1032.69 114.52 1013.75 113 999 113C991.369 113 984.335 113.496 978.093 108.316C968.45 100.314 970.947 89.8698 970.999 79C971.015 75.7208 972.164 69.4715 969.972 66.7415C968.016 64.3052 962.85 64.3621 960 64C959.016 71.7836 958.54 79.6475 955.546 87C946.607 108.957 926.045 113 905 113C905 101.216 904.927 89.573 902.335 78C900.849 71.3654 898.327 65.0388 895.243 59C884.781 38.5133 863.708 37.1079 850.44 56C832.406 81.6786 816.518 151.079 864 155.829C868.985 156.328 874.134 156.158 879 155M1235 155C1212.71 179.204 1185.71 204.674 1150 194.842C1137.6 191.428 1127.98 181.816 1116 178L1109 189C1130.19 202.196 1148.45 222.215 1173 229.56C1196.62 236.628 1215.5 226.579 1232 210C1263.44 178.413 1266.5 131.45 1260.42 89C1257.81 70.8019 1248.52 35.424 1223 42.7894C1210.55 46.3832 1203.32 59.9289 1198.58 71C1187.29 97.3752 1178.68 151.387 1220 155.826C1224.97 156.36 1230.15 156.155 1235 155M1382 50C1380.71 60.0206 1378.38 70.1515 1376.12 80C1375.13 84.3091 1372.64 90.6052 1373.77 95C1375.22 100.658 1381.54 105.954 1384.55 111C1394.97 128.484 1393.44 140.88 1379.83 156C1364.57 172.961 1341.63 196.839 1318 200.561C1306.62 202.353 1296 198.902 1286 193.742C1281.78 191.566 1274.9 185.119 1270.09 185.306C1265.73 185.475 1263.09 192.584 1262 196C1285.09 211.708 1320.61 242.51 1351 229.768C1374.39 219.961 1399.18 193.751 1405.84 169C1410.92 150.127 1408.66 121.341 1406.28 102C1404.24 85.3446 1398.91 58.2417 1382 50M613 51C608.755 60.8631 606.004 71.7688 602.67 82C601.107 86.7959 598.394 92.8905 599.408 98C603.282 117.525 623.915 135.18 615.532 157C610.653 169.698 597.141 177.495 585 181.947C555.958 192.595 502.278 193.516 484.905 162C473.986 142.191 489.002 117.354 498.22 100C500.708 95.3157 505.775 89.2892 506.608 84.0394C507.405 79.0157 499.823 75.9063 496 75C478.525 106.507 456.525 137.851 460.17 176C465.79 234.814 550.639 238.974 594 222.189C610.185 215.924 622.406 204.509 628.302 188C630.442 182.007 629.922 161.064 636.109 159.318C649.339 155.584 665.245 160.323 679 157.689C685.764 156.394 693.777 148.648 700.286 149.315C708.479 150.154 716.91 155.165 725 157.101C734.086 159.276 743.723 159 753 159C753 125.888 759.379 85.7471 745 55C737.935 60.453 724.262 77.5401 725.366 87C726.35 95.4335 732.247 102.426 733 111L705 104L707 64C700.834 66.5939 693.902 71.3103 691.804 78C689.066 86.7309 692.231 95.1202 685.471 102.815C673.847 116.044 648.72 113 633 113C632.946 93.2798 628.267 65.1039 613 51z"/>
<path style="fill:#ffffff; stroke:none;" d="M884 113C883.4 108.546 882.252 104.169 880.546 100C879.213 96.7406 877.494 93.641 874.895 91.2137C862.173 79.3307 847.406 99.7999 862.005 109.005C864.733 110.725 867.869 111.566 871 112.192C875.32 113.056 879.616 113 884 113M1240 113C1239.63 108.527 1238.56 104.192 1236.93 100C1235.71 96.8589 1234.11 93.7229 1231.67 91.3403C1218.99 78.9267 1203.67 99.8288 1218.02 109.005C1220.72 110.739 1223.88 111.568 1227 112.192C1231.32 113.056 1235.62 113 1240 113z"/>
<path style="fill:#013daf; stroke:none;" d="M109 120.532C84.8041 126.296 94.447 164.137 119 158.471C144.282 152.636 133.928 114.595 109 120.532M174 120.529C149.068 126.291 158.368 164.155 183 158.471C207.898 152.725 198.746 114.811 174 120.529M238 120.529C212.719 126.372 223.072 164.405 248 158.468C272.195 152.705 262.564 114.853 238 120.529z"/>
</svg>
